TITLE ""
FILE "P1Q_t_0339-0348.mp3" MP3
  TRACK 01 AUDIO
    TITLE "P1Q_t_0339-0348_01"
    INDEX 01 00:00:00
  TRACK 02 AUDIO
    TITLE "P1Q_t_0339-0348_02"
    INDEX 01 00:01:45
  TRACK 03 AUDIO
    TITLE "P1Q_t_0339-0348_03"
    INDEX 01 00:01:69
  TRACK 04 AUDIO
    TITLE "P1Q_t_0339-0348_04"
    INDEX 01 00:04:26
  TRACK 05 AUDIO
    TITLE "P1Q_t_0339-0348_05"
    INDEX 01 00:04:49
  TRACK 06 AUDIO
    TITLE "P1Q_t_0339-0348_06"
    INDEX 01 00:09:68
  TRACK 07 AUDIO
    TITLE "P1Q_t_0339-0348_07"
    INDEX 01 00:10:38
  TRACK 08 AUDIO
    TITLE "P1Q_t_0339-0348_08"
    INDEX 01 00:12:04
  TRACK 09 AUDIO
    TITLE "P1Q_t_0339-0348_09"
    INDEX 01 00:12:25
  TRACK 10 AUDIO
    TITLE "P1Q_t_0339-0348_10"
    INDEX 01 00:14:34
  TRACK 11 AUDIO
    TITLE "P1Q_t_0339-0348_11"
    INDEX 01 00:14:54
  TRACK 12 AUDIO
    TITLE "P1Q_t_0339-0348_12"
    INDEX 01 00:18:63
  TRACK 13 AUDIO
    TITLE "P1Q_t_0339-0348_13"
    INDEX 01 00:19:35
  TRACK 14 AUDIO
    TITLE "P1Q_t_0339-0348_14"
    INDEX 01 00:20:56
  TRACK 15 AUDIO
    TITLE "P1Q_t_0339-0348_15"
    INDEX 01 00:21:03
  TRACK 16 AUDIO
    TITLE "P1Q_t_0339-0348_16"
    INDEX 01 00:23:41
  TRACK 17 AUDIO
    TITLE "P1Q_t_0339-0348_17"
    INDEX 01 00:23:62
  TRACK 18 AUDIO
    TITLE "P1Q_t_0339-0348_18"
    INDEX 01 00:27:56
  TRACK 19 AUDIO
    TITLE "P1Q_t_0339-0348_19"
    INDEX 01 00:28:26
  TRACK 20 AUDIO
    TITLE "P1Q_t_0339-0348_20"
    INDEX 01 00:29:49
  TRACK 21 AUDIO
    TITLE "P1Q_t_0339-0348_21"
    INDEX 01 00:29:73
  TRACK 22 AUDIO
    TITLE "P1Q_t_0339-0348_22"
    INDEX 01 00:32:20
  TRACK 23 AUDIO
    TITLE "P1Q_t_0339-0348_23"
    INDEX 01 00:32:44
  TRACK 24 AUDIO
    TITLE "P1Q_t_0339-0348_24"
    INDEX 01 00:37:33
  TRACK 25 AUDIO
    TITLE "P1Q_t_0339-0348_25"
    INDEX 01 00:38:05
  TRACK 26 AUDIO
    TITLE "P1Q_t_0339-0348_26"
    INDEX 01 00:39:22
  TRACK 27 AUDIO
    TITLE "P1Q_t_0339-0348_27"
    INDEX 01 00:39:42
  TRACK 28 AUDIO
    TITLE "P1Q_t_0339-0348_28"
    INDEX 01 00:43:08
  TRACK 29 AUDIO
    TITLE "P1Q_t_0339-0348_29"
    INDEX 01 00:43:28
  TRACK 30 AUDIO
    TITLE "P1Q_t_0339-0348_30"
    INDEX 01 00:47:10
  TRACK 31 AUDIO
    TITLE "P1Q_t_0339-0348_31"
    INDEX 01 00:47:55
  TRACK 32 AUDIO
    TITLE "P1Q_t_0339-0348_32"
    INDEX 01 00:49:03
  TRACK 33 AUDIO
    TITLE "P1Q_t_0339-0348_33"
    INDEX 01 00:49:22
  TRACK 34 AUDIO
    TITLE "P1Q_t_0339-0348_34"
    INDEX 01 00:52:15
  TRACK 35 AUDIO
    TITLE "P1Q_t_0339-0348_35"
    INDEX 01 00:52:36
  TRACK 36 AUDIO
    TITLE "P1Q_t_0339-0348_36"
    INDEX 01 00:56:38
  TRACK 37 AUDIO
    TITLE "P1Q_t_0339-0348_37"
    INDEX 01 00:57:06
  TRACK 38 AUDIO
    TITLE "P1Q_t_0339-0348_38"
    INDEX 01 00:58:31
  TRACK 39 AUDIO
    TITLE "P1Q_t_0339-0348_39"
    INDEX 01 00:58:53
  TRACK 40 AUDIO
    TITLE "P1Q_t_0339-0348_40"
    INDEX 01 01:01:02
  TRACK 41 AUDIO
    TITLE "P1Q_t_0339-0348_41"
    INDEX 01 01:01:24
  TRACK 42 AUDIO
    TITLE "P1Q_t_0339-0348_42"
    INDEX 01 01:05:49
  TRACK 43 AUDIO
    TITLE "P1Q_t_0339-0348_43"
    INDEX 01 01:06:21
  TRACK 44 AUDIO
    TITLE "P1Q_t_0339-0348_44"
    INDEX 01 01:07:42
  TRACK 45 AUDIO
    TITLE "P1Q_t_0339-0348_45"
    INDEX 01 01:07:64
  TRACK 46 AUDIO
    TITLE "P1Q_t_0339-0348_46"
    INDEX 01 01:11:24
  TRACK 47 AUDIO
    TITLE "P1Q_t_0339-0348_47"
    INDEX 01 01:11:44
  TRACK 48 AUDIO
    TITLE "P1Q_t_0339-0348_48"
    INDEX 01 01:16:02
  TRACK 49 AUDIO
    TITLE "P1Q_t_0339-0348_49"
    INDEX 01 01:16:47
  TRACK 50 AUDIO
    TITLE "P1Q_t_0339-0348_50"
    INDEX 01 01:17:68
  TRACK 51 AUDIO
    TITLE "P1Q_t_0339-0348_51"
    INDEX 01 01:18:14
  TRACK 52 AUDIO
    TITLE "P1Q_t_0339-0348_52"
    INDEX 01 01:21:52
  TRACK 53 AUDIO
    TITLE "P1Q_t_0339-0348_53"
    INDEX 01 01:21:71
  TRACK 54 AUDIO
    TITLE "P1Q_t_0339-0348_54"
    INDEX 01 01:25:10
  TRACK 55 AUDIO
    TITLE "P1Q_t_0339-0348_55"
    INDEX 01 01:25:58
  TRACK 56 AUDIO
    TITLE "P1Q_t_0339-0348_56"
    INDEX 01 01:26:55
  TRACK 57 AUDIO
    TITLE "P1Q_t_0339-0348_57"
    INDEX 01 01:27:04
  TRACK 58 AUDIO
    TITLE "P1Q_t_0339-0348_58"
    INDEX 01 01:31:50
  TRACK 59 AUDIO
    TITLE "P1Q_t_0339-0348_59"
    INDEX 01 01:31:68
  TRACK 60 AUDIO
    TITLE "P1Q_t_0339-0348_60"
    INDEX 01 01:35:64
